<svg width="221" height="51" viewBox="0 0 221 51" fill="none" xmlns="http://www.w3.org/2000/svg">
<path d="M81.5708 26.7602L73.7034 5.9363H66.9598L59.1235 26.7602H65.2115L66.2417 23.763H74.4526L75.4829 26.7602H81.5708ZM72.9853 19.08H67.6779L70.3316 11.2437L72.9853 19.08Z" fill="#313131"/>
<path d="M90.2271 27.1348C93.474 27.1348 95.5033 25.6675 96.4087 24.3562L93.2867 21.4215C92.6935 22.2645 91.7257 22.8889 90.4457 22.8889C88.4476 22.8889 86.9178 21.4839 86.9178 19.2049C86.9178 16.9258 88.4476 15.5521 90.4457 15.5521C91.7257 15.5521 92.6935 16.1141 93.2867 16.9882L96.4087 14.0848C95.5033 12.7423 93.474 11.3062 90.2271 11.3062C85.5129 11.3062 81.985 14.4906 81.985 19.2049C81.985 23.9503 85.5129 27.1348 90.2271 27.1348Z" fill="#313131"/>
<path d="M105.837 27.1348C109.084 27.1348 111.113 25.6675 112.019 24.3562L108.897 21.4215C108.304 22.2645 107.336 22.8889 106.056 22.8889C104.058 22.8889 102.528 21.4839 102.528 19.2049C102.528 16.9258 104.058 15.5521 106.056 15.5521C107.336 15.5521 108.304 16.1141 108.897 16.9882L112.019 14.0848C111.113 12.7423 109.084 11.3062 105.837 11.3062C101.123 11.3062 97.5951 14.4906 97.5951 19.2049C97.5951 23.9503 101.123 27.1348 105.837 27.1348Z" fill="#313131"/>
<path d="M121.447 27.1348C123.758 27.1348 126.255 26.4792 127.754 25.1367L125.724 22.1396C124.882 22.9513 123.04 23.4196 121.978 23.4196C119.793 23.4196 118.481 22.1396 118.2 20.7347H128.94V19.7044C128.94 14.5843 125.693 11.3062 121.229 11.3062C116.515 11.3062 113.205 14.8341 113.205 19.2049C113.205 24.1064 116.796 27.1348 121.447 27.1348ZM124.351 17.6126H118.138C118.325 16.5199 119.137 15.0214 121.229 15.0214C123.445 15.0214 124.226 16.5512 124.351 17.6126Z" fill="#313131"/>
<path d="M137.084 27.1348C141.424 27.1348 143.952 25.0118 143.952 22.1396C143.952 15.958 135.18 17.6751 135.18 15.9268C135.18 15.3024 135.96 14.8341 137.084 14.8341C138.895 14.8341 140.612 15.6146 141.517 16.4887L143.359 13.3043C141.736 12.1179 139.582 11.3062 137.053 11.3062C132.869 11.3062 130.59 13.6165 130.59 16.2702C130.59 22.3269 139.363 20.3912 139.363 22.3581C139.363 23.045 138.77 23.5133 137.334 23.5133C135.554 23.5133 133.15 22.5142 132.026 21.5152L130.028 24.8245C131.62 26.2294 134.399 27.1348 137.084 27.1348Z" fill="#313131"/>
<path d="M152.206 27.1348C156.546 27.1348 159.075 25.0118 159.075 22.1396C159.075 15.958 150.302 17.6751 150.302 15.9268C150.302 15.3024 151.082 14.8341 152.206 14.8341C154.017 14.8341 155.734 15.6146 156.64 16.4887L158.482 13.3043C156.858 12.1179 154.704 11.3062 152.175 11.3062C147.992 11.3062 145.712 13.6165 145.712 16.2702C145.712 22.3269 154.485 20.3912 154.485 22.3581C154.485 23.045 153.892 23.5133 152.456 23.5133C150.676 23.5133 148.273 22.5142 147.149 21.5152L145.151 24.8245C146.743 26.2294 149.521 27.1348 152.206 27.1348Z" fill="#313131"/>
<path d="M163.957 10.3383C165.487 10.3383 166.704 9.08954 166.704 7.55975C166.704 6.02996 165.487 4.81237 163.957 4.81237C162.427 4.81237 161.209 6.02996 161.209 7.55975C161.209 9.08954 162.427 10.3383 163.957 10.3383ZM166.361 26.7602V11.6808H161.553V26.7602H166.361Z" fill="#313131"/>
<path d="M174.654 21.5464V16.9258C175.247 16.1141 176.496 15.5521 177.526 15.5521C179.43 15.5521 180.866 16.957 180.866 19.2049C180.866 21.4839 179.43 22.8889 177.526 22.8889C176.496 22.8889 175.247 22.3581 174.654 21.5464ZM174.654 26.7602V25.0118C175.902 26.448 177.432 27.1348 179.118 27.1348C182.833 27.1348 185.768 24.325 185.768 19.2049C185.768 14.2721 182.865 11.3062 179.118 11.3062C177.463 11.3062 175.84 11.9618 174.654 13.4604V5.9363H169.846V26.7602H174.654Z" fill="#313131"/>
<path d="M193.099 26.7602V5.9363H188.291V26.7602H193.099Z" fill="#313131"/>
<path d="M196.272 32.6296C196.771 32.7857 197.895 32.8793 198.332 32.8793C201.205 32.8169 203.484 32.0988 204.701 28.9144L211.507 11.6808H206.418L202.984 21.2342L199.581 11.6808H194.524L200.518 26.9787L200.174 27.7904C199.925 28.4148 199.238 28.6334 198.145 28.6334C197.77 28.6334 197.302 28.5397 196.959 28.3524L196.272 32.6296Z" fill="#313131"/>
<path d="M64.3428 41.9155C64.4025 42.0269 64.4543 42.1463 64.498 42.2736C64.5219 42.21 64.5458 42.1483 64.5697 42.0886C64.5975 42.0249 64.6274 41.9652 64.6592 41.9095L67.9781 36.0417C68.01 35.9899 68.0418 35.9581 68.0737 35.9462C68.1055 35.9342 68.1493 35.9283 68.205 35.9283H68.6288V44.3748H68.0916V37.1758C68.0916 37.0724 68.0975 36.9629 68.1095 36.8475L64.7846 42.7512C64.7288 42.8547 64.6493 42.9064 64.5458 42.9064H64.4503C64.3508 42.9064 64.2712 42.8547 64.2115 42.7512L60.7971 36.8416C60.809 36.957 60.815 37.0684 60.815 37.1758V44.3748H60.2837V35.9283H60.7015C60.7573 35.9283 60.801 35.9342 60.8329 35.9462C60.8687 35.9581 60.9025 35.9899 60.9343 36.0417L64.3428 41.9155Z" fill="#3A3A3A"/>
<path d="M74.6421 44.3748C74.5227 44.3748 74.449 44.3191 74.4212 44.2077L74.3376 43.4496C74.1745 43.6088 74.0113 43.752 73.8481 43.8794C73.6889 44.0067 73.5218 44.1142 73.3467 44.2017C73.1716 44.2893 72.9826 44.3549 72.7796 44.3987C72.5767 44.4465 72.3538 44.4704 72.1111 44.4704C71.9081 44.4704 71.7111 44.4405 71.5201 44.3808C71.3291 44.3211 71.1599 44.2296 71.0127 44.1062C70.8655 43.9829 70.7461 43.8257 70.6545 43.6346C70.567 43.4397 70.5232 43.2068 70.5232 42.9362C70.5232 42.6855 70.5949 42.4527 70.7381 42.2378C70.8814 42.0229 71.1042 41.8359 71.4067 41.6767C71.7131 41.5175 72.1051 41.3902 72.5826 41.2947C73.0642 41.1992 73.6412 41.1435 74.3137 41.1275V40.5067C74.3137 39.9575 74.1944 39.5357 73.9556 39.2412C73.7208 38.9428 73.3706 38.7935 72.905 38.7935C72.6185 38.7935 72.3737 38.8333 72.1708 38.9129C71.9718 38.9925 71.8026 39.0801 71.6634 39.1756C71.5241 39.2711 71.4107 39.3586 71.3231 39.4382C71.2356 39.5178 71.1619 39.5576 71.1022 39.5576C71.0227 39.5576 70.963 39.5218 70.9232 39.4502L70.8217 39.277C71.1321 38.9666 71.4584 38.7318 71.8007 38.5727C72.1429 38.4135 72.5309 38.3339 72.9647 38.3339C73.283 38.3339 73.5616 38.3856 73.8004 38.4891C74.0392 38.5886 74.2361 38.7338 74.3913 38.9249C74.5505 39.1119 74.6699 39.3407 74.7495 39.6113C74.8291 39.878 74.8689 40.1764 74.8689 40.5067V44.3748H74.6421ZM72.2543 44.0585C72.4851 44.0585 72.6961 44.0346 72.8871 43.9868C73.0821 43.9351 73.2611 43.8655 73.4243 43.7779C73.5915 43.6864 73.7467 43.5789 73.8899 43.4556C74.0332 43.3322 74.1745 43.1989 74.3137 43.0556V41.5096C73.7486 41.5255 73.2611 41.5693 72.8513 41.6409C72.4453 41.7085 72.1091 41.8021 71.8424 41.9215C71.5798 42.0408 71.3848 42.1841 71.2574 42.3512C71.1341 42.5144 71.0724 42.7014 71.0724 42.9124C71.0724 43.1113 71.1042 43.2844 71.1679 43.4317C71.2356 43.575 71.3231 43.6943 71.4306 43.7899C71.538 43.8814 71.6634 43.949 71.8066 43.9928C71.9499 44.0366 72.0991 44.0585 72.2543 44.0585Z" fill="#3A3A3A"/>
<path d="M80.866 44.3748C80.7665 44.3748 80.7088 44.3231 80.6929 44.2196L80.6332 43.2825C80.3705 43.6406 80.0621 43.9252 79.708 44.1361C79.3578 44.347 78.9638 44.4524 78.526 44.4524C77.7978 44.4524 77.2287 44.1997 76.8188 43.6943C76.4129 43.1889 76.2099 42.4308 76.2099 41.42C76.2099 40.9863 76.2656 40.5823 76.3771 40.2083C76.4925 39.8302 76.6596 39.5039 76.8785 39.2293C77.1013 38.9507 77.372 38.7318 77.6903 38.5727C78.0127 38.4135 78.3828 38.3339 78.8006 38.3339C79.2026 38.3339 79.5508 38.4095 79.8452 38.5607C80.1397 38.708 80.3944 38.9249 80.6093 39.2114V35.6895H81.1824V44.3748H80.866ZM78.6872 43.9928C79.0812 43.9928 79.4373 43.8913 79.7557 43.6884C80.0741 43.4854 80.3586 43.2029 80.6093 42.8407V39.7068C80.3785 39.3686 80.1238 39.1298 79.8452 38.9905C79.5707 38.8512 79.2583 38.7816 78.9081 38.7816C78.5579 38.7816 78.2514 38.8453 77.9888 38.9726C77.7261 39.1 77.5053 39.281 77.3262 39.5158C77.1511 39.7466 77.0178 40.0252 76.9263 40.3515C76.8387 40.6739 76.7949 41.03 76.7949 41.42C76.7949 42.3035 76.9581 42.9541 77.2844 43.372C77.6107 43.7859 78.0783 43.9928 78.6872 43.9928Z" fill="#3A3A3A"/>
<path d="M85.4134 38.3399C85.7477 38.3399 86.0561 38.3976 86.3387 38.513C86.6252 38.6284 86.8719 38.7975 87.0789 39.0204C87.2898 39.2392 87.4529 39.5098 87.5683 39.8322C87.6877 40.1545 87.7474 40.5246 87.7474 40.9425C87.7474 41.03 87.7335 41.0897 87.7056 41.1216C87.6818 41.1534 87.642 41.1693 87.5862 41.1693H83.2943V41.2827C83.2943 41.7284 83.346 42.1204 83.4495 42.4587C83.553 42.797 83.7002 43.0815 83.8912 43.3123C84.0823 43.5391 84.3131 43.7103 84.5837 43.8257C84.8543 43.9411 85.1567 43.9988 85.491 43.9988C85.7895 43.9988 86.0481 43.9669 86.267 43.9033C86.4859 43.8356 86.669 43.762 86.8162 43.6824C86.9674 43.5988 87.0868 43.5252 87.1744 43.4615C87.2619 43.3939 87.3256 43.3601 87.3654 43.3601C87.4171 43.3601 87.4569 43.38 87.4848 43.4198L87.64 43.6108C87.5445 43.7302 87.4171 43.8416 87.2579 43.9451C87.1027 44.0485 86.9276 44.1381 86.7326 44.2137C86.5416 44.2853 86.3347 44.343 86.1118 44.3868C85.8929 44.4306 85.6721 44.4524 85.4492 44.4524C85.0433 44.4524 84.6732 44.3828 84.3389 44.2435C84.0047 44.1003 83.7181 43.8933 83.4793 43.6227C83.2406 43.3521 83.0555 43.0218 82.9242 42.6318C82.7969 42.2378 82.7332 41.7881 82.7332 41.2827C82.7332 40.8569 82.7929 40.4649 82.9123 40.1068C83.0356 39.7446 83.2107 39.4342 83.4376 39.1756C83.6684 38.9129 83.9489 38.708 84.2792 38.5607C84.6135 38.4135 84.9916 38.3399 85.4134 38.3399ZM85.4194 38.7637C85.113 38.7637 84.8384 38.8114 84.5956 38.9069C84.3529 39.0025 84.1419 39.1398 83.9629 39.3188C83.7878 39.4979 83.6445 39.7128 83.5331 39.9635C83.4256 40.2142 83.354 40.4948 83.3182 40.8052H87.2341C87.2341 40.4868 87.1903 40.2023 87.1027 39.9516C87.0152 39.6969 86.8918 39.482 86.7326 39.3069C86.5734 39.1318 86.3824 38.9985 86.1596 38.9069C85.9367 38.8114 85.69 38.7637 85.4194 38.7637Z" fill="#3A3A3A"/>
<path d="M91.6406 44.3748V35.6895H92.2137V39.474C92.4763 39.1238 92.7808 38.8473 93.127 38.6443C93.4732 38.4413 93.8632 38.3399 94.297 38.3399C95.0252 38.3399 95.5923 38.5926 95.9982 39.098C96.4081 39.5994 96.6131 40.3555 96.6131 41.3663C96.6131 41.8001 96.5554 42.206 96.44 42.584C96.3285 42.9581 96.1614 43.2844 95.9385 43.563C95.7197 43.8376 95.4491 44.0545 95.1267 44.2137C94.8083 44.3729 94.4402 44.4524 94.0224 44.4524C93.6085 44.4524 93.2523 44.3729 92.9539 44.2137C92.6554 44.0505 92.3987 43.8117 92.1838 43.4974L92.148 44.2256C92.1361 44.3251 92.0824 44.3748 91.9868 44.3748H91.6406ZM94.1358 38.7935C93.7418 38.7935 93.3857 38.895 93.0673 39.098C92.7489 39.3009 92.4644 39.5835 92.2137 39.9456V43.0795C92.4405 43.4217 92.6912 43.6625 92.9658 43.8018C93.2404 43.9371 93.5568 44.0047 93.9149 44.0047C94.2651 44.0047 94.5716 43.9411 94.8342 43.8137C95.0969 43.6864 95.3157 43.5073 95.4908 43.2765C95.6699 43.0417 95.8032 42.7631 95.8908 42.4408C95.9823 42.1145 96.0281 41.7563 96.0281 41.3663C96.0281 40.4828 95.8649 39.8342 95.5386 39.4203C95.2123 39.0025 94.7447 38.7935 94.1358 38.7935Z" fill="#3A3A3A"/>
<path d="M99.2886 46.285C99.2648 46.3407 99.2329 46.3865 99.1931 46.4223C99.1573 46.4581 99.1036 46.476 99.0319 46.476H98.626L99.6707 44.154L97.1576 38.4354H97.6292C97.6889 38.4354 97.7346 38.4513 97.7665 38.4831C97.8023 38.511 97.8281 38.5428 97.8441 38.5786L99.8438 43.1989C99.8677 43.2586 99.8876 43.3203 99.9035 43.3839C99.9234 43.4436 99.9413 43.5053 99.9572 43.569C99.9771 43.5053 99.997 43.4436 100.017 43.3839C100.041 43.3203 100.065 43.2586 100.089 43.1989L102.064 38.5786C102.084 38.5349 102.112 38.501 102.148 38.4772C102.184 38.4493 102.224 38.4354 102.267 38.4354H102.703L99.2886 46.285Z" fill="#3A3A3A"/>
<path d="M113.946 40.059C113.946 40.6918 113.84 41.2788 113.629 41.82C113.419 42.3572 113.122 42.8228 112.74 43.2168C112.358 43.6108 111.898 43.9192 111.361 44.142C110.824 44.3609 110.229 44.4704 109.576 44.4704C108.924 44.4704 108.327 44.3609 107.786 44.142C107.248 43.9192 106.787 43.6108 106.401 43.2168C106.019 42.8228 105.722 42.3572 105.511 41.82C105.3 41.2788 105.195 40.6918 105.195 40.059C105.195 39.4263 105.3 38.8413 105.511 38.304C105.722 37.7628 106.019 37.2952 106.401 36.9013C106.787 36.5073 107.248 36.2009 107.786 35.982C108.327 35.7591 108.924 35.6477 109.576 35.6477C110.229 35.6477 110.824 35.7591 111.361 35.982C111.898 36.2048 112.358 36.5132 112.74 36.9072C113.122 37.2972 113.419 37.7628 113.629 38.304C113.84 38.8413 113.946 39.4263 113.946 40.059ZM112.298 40.059C112.298 39.5855 112.235 39.1616 112.107 38.7876C111.984 38.4095 111.805 38.0891 111.57 37.8265C111.335 37.5638 111.049 37.3629 110.71 37.2236C110.376 37.0843 109.998 37.0147 109.576 37.0147C109.154 37.0147 108.774 37.0843 108.436 37.2236C108.098 37.3629 107.809 37.5638 107.571 37.8265C107.336 38.0891 107.155 38.4095 107.027 38.7876C106.9 39.1616 106.836 39.5855 106.836 40.059C106.836 40.5326 106.9 40.9584 107.027 41.3365C107.155 41.7105 107.336 42.0289 107.571 42.2916C107.809 42.5502 108.098 42.7492 108.436 42.8885C108.774 43.0278 109.154 43.0974 109.576 43.0974C109.998 43.0974 110.376 43.0278 110.71 42.8885C111.049 42.7492 111.335 42.5502 111.57 42.2916C111.805 42.0289 111.984 41.7105 112.107 41.3365C112.235 40.9584 112.298 40.5326 112.298 40.059Z" fill="#574CD5"/>
<path d="M115.131 44.3748V38.2503H116.033C116.224 38.2503 116.349 38.3399 116.409 38.5189L116.51 39.0025C116.634 38.8751 116.763 38.7597 116.898 38.6562C117.038 38.5528 117.183 38.4632 117.334 38.3876C117.489 38.312 117.654 38.2543 117.83 38.2145C118.005 38.1747 118.196 38.1548 118.403 38.1548C118.737 38.1548 119.033 38.2125 119.292 38.3279C119.551 38.4393 119.766 38.5985 119.937 38.8055C120.112 39.0084 120.243 39.2532 120.331 39.5397C120.422 39.8222 120.468 40.1346 120.468 40.4769V44.3748H118.994V40.4769C118.994 40.1028 118.906 39.8143 118.731 39.6113C118.56 39.4044 118.301 39.3009 117.955 39.3009C117.7 39.3009 117.461 39.3586 117.239 39.474C117.016 39.5894 116.805 39.7466 116.606 39.9456V44.3748H115.131Z" fill="#574CD5"/>
<path d="M128.083 35.7432V37.0624H125.487V44.3748H123.881V37.0624H121.272V35.7432H128.083Z" fill="#574CD5"/>
<path d="M129.017 44.3748V35.5044H130.491V38.9129C130.73 38.6861 130.993 38.503 131.279 38.3637C131.566 38.2245 131.902 38.1548 132.288 38.1548C132.623 38.1548 132.919 38.2125 133.178 38.3279C133.436 38.4393 133.651 38.5985 133.822 38.8055C133.997 39.0084 134.129 39.2532 134.216 39.5397C134.308 39.8222 134.354 40.1346 134.354 40.4769V44.3748H132.879V40.4769C132.879 40.1028 132.792 39.8143 132.617 39.6113C132.445 39.4044 132.187 39.3009 131.841 39.3009C131.586 39.3009 131.347 39.3586 131.124 39.474C130.901 39.5894 130.69 39.7466 130.491 39.9456V44.3748H129.017Z" fill="#574CD5"/>
<path d="M138.334 38.1548C138.72 38.1548 139.074 38.2165 139.396 38.3399C139.722 38.4632 140.003 38.6443 140.238 38.8831C140.473 39.1179 140.656 39.4084 140.787 39.7546C140.918 40.0968 140.984 40.4888 140.984 40.9305C140.984 41.042 140.978 41.1355 140.966 41.2111C140.958 41.2827 140.94 41.3404 140.912 41.3842C140.888 41.424 140.855 41.4539 140.811 41.4738C140.767 41.4897 140.711 41.4976 140.644 41.4976H136.859C136.903 42.1264 137.072 42.588 137.366 42.8825C137.661 43.177 138.051 43.3242 138.536 43.3242C138.775 43.3242 138.98 43.2964 139.151 43.2407C139.326 43.185 139.478 43.1233 139.605 43.0556C139.736 42.988 139.85 42.9263 139.945 42.8706C140.045 42.8149 140.14 42.787 140.232 42.787C140.291 42.787 140.343 42.7989 140.387 42.8228C140.431 42.8467 140.469 42.8805 140.5 42.9243L140.93 43.4615C140.767 43.6526 140.584 43.8137 140.381 43.9451C140.178 44.0724 139.965 44.1759 139.742 44.2555C139.523 44.3311 139.299 44.3848 139.068 44.4166C138.841 44.4485 138.62 44.4644 138.405 44.4644C137.979 44.4644 137.583 44.3947 137.217 44.2555C136.851 44.1122 136.533 43.9033 136.262 43.6287C135.992 43.3501 135.779 43.0079 135.623 42.602C135.468 42.1921 135.391 41.7185 135.391 41.1813C135.391 40.7634 135.458 40.3714 135.594 40.0053C135.729 39.6352 135.922 39.3148 136.173 39.0442C136.427 38.7697 136.736 38.5528 137.098 38.3936C137.464 38.2344 137.876 38.1548 138.334 38.1548ZM138.363 39.2114C137.934 39.2114 137.597 39.3328 137.355 39.5755C137.112 39.8183 136.957 40.1625 136.889 40.6082H139.659C139.659 40.4172 139.633 40.2381 139.581 40.071C139.529 39.8998 139.45 39.7506 139.342 39.6233C139.235 39.4959 139.1 39.3964 138.936 39.3248C138.773 39.2492 138.582 39.2114 138.363 39.2114Z" fill="#574CD5"/>
<path d="M146.597 40.7933C146.665 40.9206 146.727 41.0539 146.782 41.1932C146.842 41.3285 146.9 41.4658 146.955 41.6051C147.011 41.4618 147.069 41.3205 147.128 41.1813C147.188 41.042 147.252 40.9087 147.319 40.7813L149.874 35.9999C149.906 35.9402 149.938 35.8924 149.97 35.8566C150.006 35.8208 150.043 35.7949 150.083 35.779C150.127 35.7631 150.175 35.7532 150.227 35.7492C150.278 35.7452 150.34 35.7432 150.412 35.7432H151.623V44.3748H150.209V38.7995C150.209 38.696 150.211 38.5826 150.215 38.4592C150.223 38.3359 150.233 38.2105 150.244 38.0832L147.636 42.978C147.576 43.0894 147.499 43.177 147.403 43.2407C147.308 43.3004 147.196 43.3302 147.069 43.3302H146.848C146.721 43.3302 146.609 43.3004 146.514 43.2407C146.418 43.177 146.341 43.0894 146.281 42.978L143.636 38.0653C143.652 38.1966 143.662 38.3259 143.666 38.4533C143.674 38.5766 143.678 38.692 143.678 38.7995V44.3748H142.263V35.7432H143.475C143.547 35.7432 143.609 35.7452 143.66 35.7492C143.712 35.7532 143.758 35.7631 143.798 35.779C143.841 35.7949 143.881 35.8208 143.917 35.8566C143.953 35.8924 143.987 35.9402 144.018 35.9999L146.597 40.7933Z" fill="#574CD5"/>
<path d="M158.078 44.3748H157.416C157.277 44.3748 157.167 44.3549 157.088 44.3152C157.008 44.2714 156.948 44.1858 156.908 44.0585L156.777 43.6227C156.622 43.762 156.469 43.8854 156.317 43.9928C156.17 44.0963 156.017 44.1838 155.858 44.2555C155.699 44.3271 155.53 44.3808 155.35 44.4166C155.171 44.4524 154.972 44.4704 154.754 44.4704C154.495 44.4704 154.256 44.4365 154.037 44.3689C153.818 44.2972 153.629 44.1918 153.47 44.0525C153.315 43.9132 153.194 43.7401 153.106 43.5332C153.018 43.3262 152.975 43.0855 152.975 42.8109C152.975 42.5801 153.034 42.3532 153.154 42.1304C153.277 41.9035 153.48 41.7006 153.763 41.5215C154.045 41.3384 154.421 41.1872 154.891 41.0678C155.36 40.9485 155.943 40.8808 156.64 40.8649V40.5067C156.64 40.0968 156.552 39.7944 156.377 39.5994C156.206 39.4004 155.955 39.3009 155.625 39.3009C155.386 39.3009 155.187 39.3288 155.028 39.3845C154.869 39.4402 154.73 39.5039 154.61 39.5755C154.495 39.6432 154.387 39.7048 154.288 39.7606C154.188 39.8163 154.079 39.8441 153.96 39.8441C153.86 39.8441 153.775 39.8183 153.703 39.7665C153.631 39.7148 153.574 39.6511 153.53 39.5755L153.261 39.1039C153.966 38.4592 154.815 38.1369 155.81 38.1369C156.168 38.1369 156.487 38.1966 156.765 38.316C157.048 38.4314 157.287 38.5946 157.482 38.8055C157.677 39.0124 157.824 39.2611 157.923 39.5516C158.027 39.8421 158.078 40.1605 158.078 40.5067V44.3748ZM155.213 43.4556C155.364 43.4556 155.504 43.4416 155.631 43.4138C155.758 43.3859 155.878 43.3441 155.989 43.2884C156.105 43.2327 156.214 43.1651 156.317 43.0855C156.425 43.0019 156.532 42.9044 156.64 42.793V41.7603C156.21 41.7802 155.85 41.818 155.559 41.8737C155.273 41.9254 155.042 41.9931 154.867 42.0767C154.692 42.1602 154.566 42.2577 154.491 42.3692C154.419 42.4806 154.383 42.602 154.383 42.7333C154.383 42.992 154.459 43.177 154.61 43.2884C154.765 43.3999 154.966 43.4556 155.213 43.4556Z" fill="#574CD5"/>
<path d="M159.528 46.3746V38.2503H160.43C160.525 38.2503 160.607 38.2722 160.674 38.316C160.742 38.3598 160.786 38.4274 160.806 38.5189L160.925 39.086C161.172 38.8035 161.454 38.5747 161.773 38.3996C162.095 38.2245 162.471 38.1369 162.901 38.1369C163.235 38.1369 163.54 38.2065 163.814 38.3458C164.093 38.4851 164.332 38.6881 164.531 38.9547C164.733 39.2173 164.889 39.5437 164.996 39.9337C165.108 40.3197 165.163 40.7634 165.163 41.2648C165.163 41.7225 165.102 42.1463 164.978 42.5363C164.855 42.9263 164.678 43.2645 164.447 43.5511C164.22 43.8376 163.944 44.0624 163.617 44.2256C163.295 44.3848 162.933 44.4644 162.531 44.4644C162.185 44.4644 161.89 44.4126 161.647 44.3092C161.409 44.2017 161.194 44.0545 161.003 43.8675V46.3746H159.528ZM162.394 39.3009C162.087 39.3009 161.824 39.3666 161.606 39.4979C161.391 39.6253 161.19 39.8063 161.003 40.0411V42.787C161.17 42.9939 161.351 43.1392 161.546 43.2228C161.745 43.3024 161.958 43.3422 162.185 43.3422C162.407 43.3422 162.608 43.3004 162.787 43.2168C162.971 43.1332 163.124 43.0059 163.247 42.8348C163.374 42.6636 163.472 42.4487 163.54 42.1901C163.607 41.9274 163.641 41.619 163.641 41.2648C163.641 40.9067 163.611 40.6042 163.552 40.3575C163.496 40.1068 163.414 39.9038 163.307 39.7486C163.199 39.5934 163.068 39.48 162.913 39.4084C162.762 39.3367 162.589 39.3009 162.394 39.3009Z" fill="#574CD5"/>
<path d="M170.696 40.7933C170.764 40.9206 170.825 41.0539 170.881 41.1932C170.941 41.3285 170.998 41.4658 171.054 41.6051C171.11 41.4618 171.168 41.3205 171.227 41.1813C171.287 41.042 171.351 40.9087 171.418 40.7813L173.973 35.9999C174.005 35.9402 174.037 35.8924 174.069 35.8566C174.104 35.8208 174.142 35.7949 174.182 35.779C174.226 35.7631 174.274 35.7532 174.325 35.7492C174.377 35.7452 174.439 35.7432 174.51 35.7432H175.722V44.3748H174.307V38.7995C174.307 38.696 174.309 38.5826 174.313 38.4592C174.321 38.3359 174.331 38.2105 174.343 38.0832L171.735 42.978C171.675 43.0894 171.597 43.177 171.502 43.2407C171.406 43.3004 171.295 43.3302 171.168 43.3302H170.947C170.819 43.3302 170.708 43.3004 170.612 43.2407C170.517 43.177 170.439 43.0894 170.38 42.978L167.735 38.0653C167.751 38.1966 167.761 38.3259 167.765 38.4533C167.773 38.5766 167.777 38.692 167.777 38.7995V44.3748H166.362V35.7432H167.574C167.646 35.7432 167.707 35.7452 167.759 35.7492C167.811 35.7532 167.857 35.7631 167.896 35.779C167.94 35.7949 167.98 35.8208 168.016 35.8566C168.052 35.8924 168.085 35.9402 168.117 35.9999L170.696 40.7933Z" fill="#574CD5"/>
<path d="M182.177 44.3748H181.515C181.375 44.3748 181.266 44.3549 181.186 44.3152C181.107 44.2714 181.047 44.1858 181.007 44.0585L180.876 43.6227C180.721 43.762 180.568 43.8854 180.416 43.9928C180.269 44.0963 180.116 44.1838 179.957 44.2555C179.797 44.3271 179.628 44.3808 179.449 44.4166C179.27 44.4524 179.071 44.4704 178.852 44.4704C178.594 44.4704 178.355 44.4365 178.136 44.3689C177.917 44.2972 177.728 44.1918 177.569 44.0525C177.414 43.9132 177.292 43.7401 177.205 43.5332C177.117 43.3262 177.073 43.0855 177.073 42.8109C177.073 42.5801 177.133 42.3532 177.253 42.1304C177.376 41.9035 177.579 41.7006 177.861 41.5215C178.144 41.3384 178.52 41.1872 178.99 41.0678C179.459 40.9485 180.042 40.8808 180.739 40.8649V40.5067C180.739 40.0968 180.651 39.7944 180.476 39.5994C180.305 39.4004 180.054 39.3009 179.724 39.3009C179.485 39.3009 179.286 39.3288 179.127 39.3845C178.968 39.4402 178.828 39.5039 178.709 39.5755C178.594 39.6432 178.486 39.7048 178.387 39.7606C178.287 39.8163 178.178 39.8441 178.058 39.8441C177.959 39.8441 177.873 39.8183 177.802 39.7665C177.73 39.7148 177.672 39.6511 177.629 39.5755L177.36 39.1039C178.064 38.4592 178.914 38.1369 179.909 38.1369C180.267 38.1369 180.585 38.1966 180.864 38.316C181.147 38.4314 181.385 38.5946 181.58 38.8055C181.775 39.0124 181.923 39.2611 182.022 39.5516C182.126 39.8421 182.177 40.1605 182.177 40.5067V44.3748ZM179.312 43.4556C179.463 43.4556 179.602 43.4416 179.73 43.4138C179.857 43.3859 179.977 43.3441 180.088 43.2884C180.203 43.2327 180.313 43.1651 180.416 43.0855C180.524 43.0019 180.631 42.9044 180.739 42.793V41.7603C180.309 41.7802 179.949 41.818 179.658 41.8737C179.372 41.9254 179.141 41.9931 178.966 42.0767C178.791 42.1602 178.665 42.2577 178.59 42.3692C178.518 42.4806 178.482 42.602 178.482 42.7333C178.482 42.992 178.558 43.177 178.709 43.2884C178.864 43.3999 179.065 43.4556 179.312 43.4556Z" fill="#574CD5"/>
<path d="M183.627 44.3748V38.2503H184.493C184.644 38.2503 184.749 38.2782 184.809 38.3339C184.869 38.3896 184.908 38.4851 184.928 38.6204L185.018 39.3606C185.237 38.9826 185.493 38.6841 185.788 38.4652C186.082 38.2463 186.413 38.1369 186.779 38.1369C187.081 38.1369 187.332 38.2065 187.531 38.3458L187.34 39.4502C187.328 39.5218 187.302 39.5735 187.262 39.6054C187.223 39.6332 187.169 39.6471 187.101 39.6471C187.041 39.6471 186.96 39.6332 186.856 39.6054C186.753 39.5775 186.616 39.5636 186.445 39.5636C186.138 39.5636 185.875 39.6491 185.657 39.8203C185.438 39.9874 185.253 40.2341 185.101 40.5604V44.3748H183.627Z" fill="#574CD5"/>
<path d="M189.993 35.5044V40.5843H190.267C190.367 40.5843 190.444 40.5704 190.5 40.5425C190.556 40.5147 190.616 40.4629 190.679 40.3873L192.201 38.507C192.269 38.4274 192.341 38.3657 192.416 38.322C192.492 38.2742 192.591 38.2503 192.715 38.2503H194.064L192.16 40.5246C192.092 40.6082 192.022 40.6858 191.951 40.7574C191.879 40.8251 191.801 40.8848 191.718 40.9365C191.801 40.9962 191.875 41.0658 191.939 41.1454C192.002 41.225 192.066 41.3106 192.13 41.4021L194.171 44.3748H192.84C192.725 44.3748 192.627 44.3549 192.548 44.3152C192.468 44.2754 192.396 44.2077 192.333 44.1122L190.775 41.7901C190.715 41.6986 190.655 41.6389 190.596 41.611C190.536 41.5832 190.446 41.5693 190.327 41.5693H189.993V44.3748H188.518V35.5044H189.993Z" fill="#574CD5"/>
<path d="M197.257 38.1548C197.643 38.1548 197.997 38.2165 198.32 38.3399C198.646 38.4632 198.927 38.6443 199.161 38.8831C199.396 39.1179 199.579 39.4084 199.711 39.7546C199.842 40.0968 199.908 40.4888 199.908 40.9305C199.908 41.042 199.902 41.1355 199.89 41.2111C199.882 41.2827 199.864 41.3404 199.836 41.3842C199.812 41.424 199.778 41.4539 199.734 41.4738C199.691 41.4897 199.635 41.4976 199.567 41.4976H195.783C195.827 42.1264 195.996 42.588 196.29 42.8825C196.585 43.177 196.975 43.3242 197.46 43.3242C197.699 43.3242 197.904 43.2964 198.075 43.2407C198.25 43.185 198.401 43.1233 198.529 43.0556C198.66 42.988 198.773 42.9263 198.869 42.8706C198.968 42.8149 199.064 42.787 199.155 42.787C199.215 42.787 199.267 42.7989 199.311 42.8228C199.354 42.8467 199.392 42.8805 199.424 42.9243L199.854 43.4615C199.691 43.6526 199.508 43.8137 199.305 43.9451C199.102 44.0724 198.889 44.1759 198.666 44.2555C198.447 44.3311 198.222 44.3848 197.991 44.4166C197.765 44.4485 197.544 44.4644 197.329 44.4644C196.903 44.4644 196.507 44.3947 196.141 44.2555C195.775 44.1122 195.456 43.9033 195.186 43.6287C194.915 43.3501 194.702 43.0079 194.547 42.602C194.392 42.1921 194.314 41.7185 194.314 41.1813C194.314 40.7634 194.382 40.3714 194.517 40.0053C194.653 39.6352 194.846 39.3148 195.096 39.0442C195.351 38.7697 195.659 38.5528 196.022 38.3936C196.388 38.2344 196.8 38.1548 197.257 38.1548ZM197.287 39.2114C196.857 39.2114 196.521 39.3328 196.278 39.5755C196.036 39.8183 195.88 40.1625 195.813 40.6082H198.582C198.582 40.4172 198.557 40.2381 198.505 40.071C198.453 39.8998 198.373 39.7506 198.266 39.6233C198.159 39.4959 198.023 39.3964 197.86 39.3248C197.697 39.2492 197.506 39.2114 197.287 39.2114Z" fill="#574CD5"/>
<path d="M203.115 44.4704C202.586 44.4704 202.178 44.3211 201.892 44.0227C201.605 43.7202 201.462 43.3043 201.462 42.7751V39.3546H200.841C200.761 39.3546 200.692 39.3288 200.632 39.277C200.576 39.2253 200.548 39.1477 200.548 39.0442V38.4592L201.533 38.2981L201.844 36.6267C201.86 36.5471 201.896 36.4854 201.951 36.4416C202.011 36.3978 202.085 36.376 202.172 36.376H202.936V38.304H204.548V39.3546H202.936V42.6736C202.936 42.8646 202.984 43.0138 203.079 43.1213C203.175 43.2287 203.302 43.2825 203.462 43.2825C203.553 43.2825 203.629 43.2725 203.688 43.2526C203.752 43.2287 203.806 43.2049 203.85 43.181C203.897 43.1571 203.939 43.1352 203.975 43.1153C204.011 43.0914 204.046 43.0795 204.082 43.0795C204.126 43.0795 204.162 43.0914 204.19 43.1153C204.218 43.1352 204.247 43.1671 204.279 43.2108L204.721 43.9271C204.506 44.1062 204.259 44.2415 203.981 44.3331C203.702 44.4246 203.414 44.4704 203.115 44.4704Z" fill="#574CD5"/>
<path d="M207.29 38.2503V44.3748H205.816V38.2503H207.29ZM207.511 36.4655C207.511 36.5928 207.485 36.7122 207.434 36.8237C207.382 36.9351 207.312 37.0326 207.225 37.1161C207.141 37.1997 207.042 37.2674 206.926 37.3191C206.811 37.3669 206.688 37.3907 206.556 37.3907C206.429 37.3907 206.308 37.3669 206.192 37.3191C206.081 37.2674 205.983 37.1997 205.9 37.1161C205.816 37.0326 205.748 36.9351 205.697 36.8237C205.649 36.7122 205.625 36.5928 205.625 36.4655C205.625 36.3342 205.649 36.2108 205.697 36.0954C205.748 35.98 205.816 35.8805 205.9 35.7969C205.983 35.7134 206.081 35.6477 206.192 35.5999C206.308 35.5482 206.429 35.5223 206.556 35.5223C206.688 35.5223 206.811 35.5482 206.926 35.5999C207.042 35.6477 207.141 35.7134 207.225 35.7969C207.312 35.8805 207.382 35.98 207.434 36.0954C207.485 36.2108 207.511 36.3342 207.511 36.4655Z" fill="#574CD5"/>
<path d="M208.962 44.3748V38.2503H209.863C210.054 38.2503 210.179 38.3399 210.239 38.5189L210.341 39.0025C210.464 38.8751 210.593 38.7597 210.729 38.6562C210.868 38.5528 211.013 38.4632 211.164 38.3876C211.32 38.312 211.485 38.2543 211.66 38.2145C211.835 38.1747 212.026 38.1548 212.233 38.1548C212.567 38.1548 212.864 38.2125 213.122 38.3279C213.381 38.4393 213.596 38.5985 213.767 38.8055C213.942 39.0084 214.073 39.2532 214.161 39.5397C214.252 39.8222 214.298 40.1346 214.298 40.4769V44.3748H212.824V40.4769C212.824 40.1028 212.736 39.8143 212.561 39.6113C212.39 39.4044 212.131 39.3009 211.785 39.3009C211.53 39.3009 211.292 39.3586 211.069 39.474C210.846 39.5894 210.635 39.7466 210.436 39.9456V44.3748H208.962Z" fill="#574CD5"/>
<path d="M217.866 38.1429C218.129 38.1429 218.376 38.1707 218.606 38.2264C218.837 38.2782 219.048 38.3558 219.239 38.4592H221V39.0084C221 39.1 220.976 39.1716 220.928 39.2233C220.881 39.2751 220.799 39.3109 220.684 39.3308L220.135 39.4322C220.174 39.5357 220.204 39.6452 220.224 39.7606C220.248 39.876 220.26 39.9973 220.26 40.1247C220.26 40.4271 220.198 40.7017 220.075 40.9485C219.955 41.1912 219.788 41.3981 219.573 41.5693C219.363 41.7404 219.11 41.8737 218.815 41.9692C218.525 42.0607 218.208 42.1065 217.866 42.1065C217.635 42.1065 217.411 42.0846 217.192 42.0408C217.001 42.1562 216.905 42.2856 216.905 42.4288C216.905 42.5522 216.961 42.6437 217.072 42.7034C217.188 42.7591 217.337 42.7989 217.52 42.8228C217.707 42.8467 217.918 42.8626 218.153 42.8706C218.388 42.8746 218.628 42.8865 218.875 42.9064C219.122 42.9263 219.363 42.9621 219.597 43.0138C219.832 43.0616 220.041 43.1392 220.224 43.2466C220.411 43.3541 220.56 43.5013 220.672 43.6884C220.787 43.8714 220.845 44.1082 220.845 44.3987C220.845 44.6693 220.777 44.932 220.642 45.1867C220.511 45.4414 220.318 45.6682 220.063 45.8672C219.812 46.0662 219.504 46.2253 219.138 46.3447C218.772 46.4681 218.354 46.5298 217.884 46.5298C217.419 46.5298 217.015 46.484 216.672 46.3925C216.33 46.3049 216.046 46.1855 215.819 46.0343C215.596 45.8871 215.429 45.716 215.317 45.521C215.206 45.326 215.15 45.123 215.15 44.9121C215.15 44.6256 215.238 44.3848 215.413 44.1898C215.588 43.9948 215.831 43.8396 216.141 43.7242C215.99 43.6406 215.868 43.5292 215.777 43.3899C215.685 43.2506 215.64 43.0696 215.64 42.8467C215.64 42.7552 215.656 42.6616 215.687 42.5661C215.719 42.4667 215.767 42.3692 215.831 42.2736C215.898 42.1781 215.982 42.0886 216.081 42.005C216.181 41.9175 216.298 41.8399 216.434 41.7722C216.123 41.6051 215.878 41.3822 215.699 41.1037C215.524 40.8251 215.437 40.4988 215.437 40.1247C215.437 39.8222 215.496 39.5496 215.616 39.3069C215.739 39.0602 215.908 38.8512 216.123 38.6801C216.342 38.505 216.599 38.3717 216.893 38.2802C217.192 38.1886 217.516 38.1429 217.866 38.1429ZM219.484 44.6494C219.484 44.53 219.448 44.4325 219.376 44.3569C219.305 44.2813 219.207 44.2236 219.084 44.1838C218.961 44.14 218.815 44.1082 218.648 44.0883C218.485 44.0684 218.31 44.0545 218.123 44.0465C217.94 44.0346 217.749 44.0246 217.55 44.0167C217.355 44.0047 217.166 43.9868 216.983 43.963C216.816 44.0545 216.68 44.1639 216.577 44.2913C216.477 44.4146 216.428 44.5579 216.428 44.7211C216.428 44.8285 216.453 44.928 216.505 45.0195C216.561 45.115 216.646 45.1966 216.762 45.2643C216.881 45.3319 217.034 45.3837 217.222 45.4195C217.409 45.4593 217.637 45.4792 217.908 45.4792C218.183 45.4792 218.419 45.4573 218.618 45.4135C218.817 45.3737 218.98 45.316 219.108 45.2404C219.239 45.1688 219.335 45.0812 219.394 44.9777C219.454 44.8783 219.484 44.7688 219.484 44.6494ZM217.866 41.1633C218.049 41.1633 218.208 41.1395 218.344 41.0917C218.479 41.04 218.59 40.9703 218.678 40.8828C218.77 40.7952 218.837 40.6898 218.881 40.5664C218.929 40.4431 218.953 40.3077 218.953 40.1605C218.953 39.8581 218.861 39.6193 218.678 39.4442C218.499 39.2651 218.228 39.1756 217.866 39.1756C217.504 39.1756 217.231 39.2651 217.048 39.4442C216.869 39.6193 216.78 39.8581 216.78 40.1605C216.78 40.3038 216.802 40.4371 216.845 40.5604C216.893 40.6838 216.961 40.7913 217.048 40.8828C217.14 40.9703 217.253 41.04 217.389 41.0917C217.528 41.1395 217.687 41.1633 217.866 41.1633Z" fill="#574CD5"/>
<circle cx="25.3664" cy="25.3664" r="23.2814" fill="white"/>
<path d="M25.2038 4.06513C21.3419 4.06513 17.7849 5.08141 14.5328 6.91072C11.2807 8.84165 8.74003 11.3824 6.91072 14.6345C4.97978 17.8866 4.06513 21.3419 4.06513 25.2038C4.06513 29.0657 4.97978 32.6227 6.91072 35.8748C8.74003 39.1269 11.2807 41.6676 14.5328 43.4969C17.7849 45.4278 21.3419 46.3425 25.2038 46.3425C29.0657 46.3425 32.521 45.4278 35.7731 43.4969C39.0252 41.6676 41.5659 39.1269 43.4969 35.8748C45.3262 32.6227 46.3425 29.0657 46.3425 25.2038C46.3425 21.3419 45.3262 17.8866 43.4969 14.6345C41.5659 11.3824 39.0252 8.84165 35.7731 6.91072C32.521 5.08141 29.0657 4.06513 25.2038 4.06513ZM25.2038 0C29.6754 0 33.9438 1.21954 37.8057 3.45536C41.6676 5.69118 44.7164 8.74003 46.9522 12.6019C49.1881 16.4638 50.4076 20.7322 50.4076 25.2038C50.4076 29.7771 49.1881 33.9438 46.9522 37.8057C44.7164 41.6676 41.6676 44.818 37.8057 47.0539C33.9438 49.2897 29.6754 50.4076 25.2038 50.4076C20.6305 50.4076 16.4638 49.2897 12.6019 47.0539C8.74003 44.818 5.58955 41.6676 3.35373 37.8057C1.11791 33.9438 0 29.7771 0 25.2038C0 20.7322 1.11791 16.4638 3.35373 12.6019C5.58955 8.74003 8.74003 5.69118 12.6019 3.45536C16.4638 1.21954 20.6305 0 25.2038 0ZM25.2038 5.69118C28.6592 5.69118 31.9113 6.60583 34.9601 8.33351C37.9073 10.1628 40.2448 12.5003 42.0741 15.4475C43.8018 18.4963 44.7164 21.7484 44.7164 25.2038C44.7164 28.7608 43.8018 32.0129 42.0741 34.9601C40.2448 38.009 37.9073 40.3464 34.9601 42.0741C31.9113 43.9034 28.6592 44.7164 25.2038 44.7164C21.6468 44.7164 18.3947 43.9034 15.4475 42.0741C12.3986 40.3464 10.0612 38.009 8.33351 34.9601C6.50421 32.0129 5.69118 28.7608 5.69118 25.2038C5.69118 21.7484 6.50421 18.4963 8.33351 15.4475C10.0612 12.5003 12.3986 10.1628 15.4475 8.33351C18.3947 6.60583 21.6468 5.69118 25.2038 5.69118ZM25.2038 10.1628C24.1875 10.1628 23.2729 10.5693 22.5615 11.2807C21.8501 11.9921 21.5452 12.8052 21.5452 13.8214C21.5452 14.8377 21.8501 15.7524 22.5615 16.4638C23.2729 17.1752 24.1875 17.4801 25.2038 17.4801C26.2201 17.4801 27.0331 17.1752 27.7445 16.4638C28.4559 15.7524 28.8624 14.8377 28.8624 13.8214C28.8624 12.8052 28.4559 11.9921 27.7445 11.2807C27.0331 10.5693 26.2201 10.1628 25.2038 10.1628ZM37.1959 20.1224C37.6024 20.1224 37.9073 19.8175 38.1106 19.411C38.3138 19.0045 38.4155 18.598 38.3138 18.1915C38.2122 17.7849 38.009 17.3784 37.6024 17.1752C37.1959 16.9719 36.7894 16.8703 36.3829 16.9719C32.9275 17.7849 30.2852 18.2931 28.4559 18.4963C26.2201 18.8012 24.0859 18.8012 21.9517 18.4963C20.0208 18.2931 17.3784 17.7849 14.0247 16.9719C13.5166 16.8703 13.11 16.9719 12.7035 17.1752C12.297 17.3784 12.0938 17.7849 11.9921 18.1915C11.8905 18.598 11.9921 19.0045 12.1954 19.411C12.3986 19.8175 12.8052 20.0208 13.2117 20.1224C16.7687 20.9354 19.5126 21.5452 21.5452 21.7484C21.5452 26.0168 21.2403 29.3706 20.8338 31.8096C20.5289 33.3341 20.0208 35.0617 19.3094 36.891L19.0045 37.5008C18.8012 38.009 18.9028 38.5171 19.1061 38.9236C19.3094 39.4317 19.6142 39.7366 20.1224 39.9399C20.5289 40.1431 21.037 40.0415 21.4436 39.8383C21.8501 39.635 22.2566 39.3301 22.4598 38.9236L22.7647 38.2122C23.1712 36.9927 23.5777 35.8748 23.8826 35.0617C24.1875 33.8422 24.4924 32.521 24.6957 30.895H25.7119C25.9152 32.521 26.1185 33.8422 26.525 35.0617C26.7282 35.8748 27.1347 36.9927 27.6429 38.2122L27.9478 38.9236C28.151 39.3301 28.4559 39.635 28.8624 39.8383C29.2689 40.0415 29.7771 40.1431 30.2852 39.9399C30.6917 39.7366 31.0982 39.4317 31.3015 38.9236C31.5047 38.5171 31.5047 38.009 31.4031 37.5008L31.0982 36.891C30.2852 35.0617 29.7771 33.3341 29.5738 31.8096C29.0657 29.3706 28.8624 26.0168 28.8624 21.7484C30.7934 21.5452 33.5373 20.9354 37.1959 20.1224Z" fill="#574CD5"/>
</svg>
